<svg xmlns="http://www.w3.org/2000/svg" version="1.1" viewBox="191 194 1666 650">
<path transform="translate(269,469)" d="m0 0h144l21 2 17 4 13 5 10 7 8 9 5 11 1 5v17l-3 15-5 15-6 11-10 13-11 10-17 10-19 7-10 3-2 1v2l23 4 16 6 10 7 6 8 3 9 1 9-2 16-4 15-8 18-10 14-12 12-13 9-19 9-23 6-22 3-26 1h-131l-3-1 4-17 25-94 13-48 23-86 12-45zm56 54-7 24-11 42v4h68l12-3 11-6 8-8 7-14 3-11v-13l-3-6-5-5-13-4zm-31 118-3 8-16 59 1 2h67l16-2 10-4 9-6 7-7 6-12 2-7 1-12-3-9-6-5-11-4-8-1z" fill="#0A3BD6"/>
<path transform="translate(1081,448)" d="m0 0h66l-3 14-27 101-15 56h18l11-12 24-26 14-15 12-13 9-10 12-13h75v5l-33 33-8 7-18 18-8 7-20 20h-2l-2 4-12 11-7 7 1 6 18 35 36 72-1 6-4 1h-71l-4-6-12-28-16-37-9-21-17-1-4 17-20 75-20 1h-44l-3-1 4-17 27-101 15-56 22-82 15-56z" fill="#0A3BD6"/>
<path transform="translate(894,524)" d="m0 0h23l16 2 15 4 16 8 11 8 8 9 8 14 4 12 2 11v27l-4 23-6 20-9 21-9 16-12 16-9 10-8 8-15 11-14 8-13 6-15 5-19 4-9 1h-31l-17-3-16-5-13-7-11-9-8-10-7-14-4-16-1-10v-12l3-24 6-22 7-19 11-21 9-13 11-13 9-9 14-11 17-10 16-7 21-6 12-2zm-15 56-15 4-12 7-11 10-9 13-8 17-6 21-3 19v9l2 10 5 10 7 6 9 4 12 2h10l16-3 10-4 10-7 5-4 10-13 8-16 7-21 3-15 1-14-2-13-5-10-8-7-10-4-4-1z" fill="#0A3BD6"/>
<path transform="translate(1397,530)" d="m0 0h66l6 1 1 88v79l8 1 2-6 13-24 18-35 10-19 12-24 10-19 17-33 5-9h70l-1 5-10 15-29 44-20 30-21 32-20 30-29 44-34 51-18 22-8 7-12 10-16 10-14 6-13 4-16 3-10 1h-26l-23-3 1-5 16-36 6-14 1-1 13 1 9 1h15l16-3 10-5 10-9 8-10v-11l-21-191-2-18z" fill="#0A3BD6"/>
<path transform="translate(1655,530)" d="m0 0h202l-2 10-13 48-18 13-38 28-36 26-38 28-18 13-15 11-1 5 37-5 28-2h68l-1 8-12 45-1 3-36 1h-171l-1-3 15-55 16-12 14-10 18-13 19-14 18-13 16-12 14-10 18-13 19-14 10-7 1-6-32 4-22 2h-73l2-10 12-45z" fill="#0A3BD6"/>
<path transform="translate(687,532)" d="m0 0 6 1 12 7 11 9 8 11 6 12 4 15 1 7v23l-4 24-6 20-7 17-7 14-7 11-10 13-11 12-14 12-18 11-15 7-15 5-19 4-9 1h-31l-18-3-13-4-14-7-11-9-7-8-8-14-4-13-2-14v-17l3-22 6-22 7-18 8-16 9-14 7-9 9-10h4l12 17 13 23 5 11-7 17-6 24-1 8v14l3 12 6 8 7 5 10 3 7 1h11l16-3 16-8 10-9 9-12 8-17 6-19 3-15v-21l-4-11-4-6 1-5 12-23 11-21z" fill="#0A3BD6"/>
<path transform="translate(1326,448)" d="m0 0h66l-2 11-44 164-27 101-10 37-8 1h-55l-4-1 4-17 25-93 15-56 22-82 17-64z" fill="#0A3BD6"/>
<path transform="translate(802,309)" d="m0 0v3l-9 11-12 17-20 30-12 19-17 28-16 28-13 24-9 16-15 28-12 23-10 19-41 82-13 28-2 2-2-6-7-25-10-26-11-24-14-27-16-27-16-25-14-20-10-14-13-17-8-11-1-2 6 2 10 6 13 10 14 11 10 9 11 9 10 10 8 7 8 8 8 7 26 26 4-5 22-33 13-18 16-21 8-10 12-16 11-13 12-14 9-11 11-12 7-8 10-11 7-8 11-11 7-8 13-13 7-8z" fill="#0A3BD6"/>
<path transform="translate(923,194)" d="m0 0h2l-1 7-20 64-24 76-8 25-5-5-15-22-14-20-6-9 4-7 13-17 8-11 13-18 12-16 2-4-5 3-36 33-8 7-13 12-5 2-36-26-14-10-6-4v-2l159-57z" fill="#0A3BD6"/>
</svg>