<svg xmlns="http://www.w3.org/2000/svg" xmlns:xlink="http://www.w3.org/1999/xlink" width="258.991" height="204.605" viewBox="0 0 258.991 204.605">
  <defs>
    <linearGradient id="linear-gradient" x1="0.034" y1="0.127" x2="0.869" y2="0.827" gradientUnits="objectBoundingBox">
      <stop offset="0" stop-color="#082235"/>
      <stop offset="1" stop-color="#0e3150"/>
    </linearGradient>
  </defs>
  <g id="Group_4448" data-name="Group 4448" transform="translate(-58.332 -234.201)">
    <g id="Group_3580" data-name="Group 3580" transform="translate(-57.238 -30.722)">
      <g id="Group_3348" data-name="Group 3348" transform="translate(116.071 253)">
        <path id="Union_5" data-name="Union 5" d="M11681.146,10746.75a3.147,3.147,0,0,1-3.148-3.148v-3.424a3.15,3.15,0,0,1,3.151-3.151h12.509a3.148,3.148,0,0,1,3.148,3.148v3.427a3.148,3.148,0,0,1-3.148,3.148Zm-85.174-17.946h-19.638a13.017,13.017,0,0,1-9.418-22,98.441,98.441,0,0,1-8.57-10.911h-26.508a20.673,20.673,0,0,1,0-41.346h10.649a98.785,98.785,0,0,1,2.52-39.3h-10.753a14.3,14.3,0,0,1,0-28.609h23.82a97.953,97.953,0,0,1,136.074-26.822h29.084a11.413,11.413,0,1,1,0,22.826h-5.163a97.406,97.406,0,0,1,18.344,44.461h14.944a13.473,13.473,0,0,1,0,26.946h-1.673a13.354,13.354,0,0,0-8.449,3.854,12.329,12.329,0,0,0-3.955,9.048c0,7.442,6.04,12.978,13.48,12.978h9.661a8.733,8.733,0,1,1,0,17.466h-38.235a3.25,3.25,0,0,0-.791.581,3.063,3.063,0,0,0-.984,2.248,3.144,3.144,0,0,0,1.273,2.552h1a13.016,13.016,0,1,1,0,26.031H11683a98.127,98.127,0,0,1-87.024,0Z" transform="translate(-11511.167 -10530.722)" fill="#f3fbfa" stroke="rgba(0,0,0,0)" stroke-width="1"/>
      </g>
    </g>
    <g id="Group_3827" data-name="Group 3827" transform="translate(-16 13.05)">
      <path id="Path_2709" data-name="Path 2709" d="M457.349,515.955c0,1.587-8.98,2.874-20.059,2.874s-20.059-1.287-20.059-2.874,8.981-2.874,20.059-2.874S457.349,514.368,457.349,515.955Z" transform="translate(-274.802 -123.878)" fill="#8fd2c7" opacity="0.392"/>
      <path id="Path_3003" data-name="Path 3003" d="M489.193,515.955c0,1.587-16.109,2.874-35.981,2.874s-35.981-1.287-35.981-2.874,16.11-2.874,35.981-2.874S489.193,514.368,489.193,515.955Z" transform="translate(-223.725 -123.878)" fill="#8fd2c7" opacity="0.392"/>
      <g id="Group_3826" data-name="Group 3826" transform="translate(11541 8678)">
        <g id="Group_3789" data-name="Group 3789" transform="translate(-11346.439 -8359.765)">
          <g id="Group_3786" data-name="Group 3786" transform="translate(10.306 65.148)">
            <path id="Path_2915" data-name="Path 2915" d="M926.447,924.82a1.763,1.763,0,0,0,1.68,1.836h0a1.763,1.763,0,0,0,1.68-1.836v-5a1.763,1.763,0,0,0-1.68-1.836h0a1.763,1.763,0,0,0-1.68,1.836Z" transform="translate(-879.296 -917.987)" fill="#2a2e43"/>
            <path id="Path_2916" data-name="Path 2916" d="M822.9,924.82a1.763,1.763,0,0,0,1.681,1.836h0a1.763,1.763,0,0,0,1.679-1.836v-5a1.763,1.763,0,0,0-1.679-1.836h0a1.763,1.763,0,0,0-1.681,1.836Z" transform="translate(-822.898 -917.987)" fill="#2a2e43"/>
          </g>
          <g id="Group_3788" data-name="Group 3788">
            <path id="Path_2917" data-name="Path 2917" d="M800.265,810.432V843.4c0,.008,0,.016,0,.024h71.122V810.432c0-4.132-2.687-7.481-6-7.481a5.951,5.951,0,0,0-5.252,3.86V781.937c0-3.879-2.877-7.023-6.427-7.023h-35.76c-3.55,0-6.429,3.145-6.429,7.023V806.81a5.95,5.95,0,0,0-5.252-3.86C802.953,802.95,800.265,806.3,800.265,810.432Zm12,14.3c.021.043.043.086.064.129h-.064Zm47.116,0v.129h-.065C859.343,824.816,859.364,824.773,859.385,824.73Z" transform="translate(-800.265 -774.914)" fill="#e6e7e8"/>
            <g id="Group_3787" data-name="Group 3787" transform="translate(9.788 35.001)">
              <path id="Path_2918" data-name="Path 2918" d="M821.76,870.321a2.126,2.126,0,0,0,2.025,2.214h0a2.126,2.126,0,0,0,2.026-2.214V853.994a2.126,2.126,0,0,0-2.026-2.214h0a2.126,2.126,0,0,0-2.025,2.214Z" transform="translate(-821.76 -851.78)" fill="#939598"/>
              <path id="Path_2919" data-name="Path 2919" d="M926.067,870.321a2.127,2.127,0,0,0,2.026,2.214h0a2.126,2.126,0,0,0,2.026-2.214V853.994a2.126,2.126,0,0,0-2.026-2.214h0a2.127,2.127,0,0,0-2.026,2.214Z" transform="translate(-878.571 -851.78)" fill="#939598"/>
            </g>
            <path id="Path_2920" data-name="Path 2920" d="M823.6,879.054h49.531c.174,0,.317-.387.317-.859V864.607c0-.472-.143-.859-.317-.859H823.6c-.175,0-.318.387-.318.859v13.587C823.278,878.667,823.421,879.054,823.6,879.054Z" transform="translate(-812.799 -823.297)" fill="#d1d3d4"/>
          </g>
        </g>
        <path id="Path_3002" data-name="Path 3002" d="M-206.071,305.422a5.08,5.08,0,0,1-2.906-2.858,5.1,5.1,0,0,1,1.511-5.458,5.053,5.053,0,0,1,2.836-5.236,4.346,4.346,0,0,1,3,.053,6.039,6.039,0,0,1,6.525-1.221,6.281,6.281,0,0,1,3.421,4.407,6.125,6.125,0,0,1,3.59,1.293c2.187,1.791,2.857,5.294,1.55,8.7-1.349,2.778-.349,5.865,1.769,6.987a4.947,4.947,0,0,0,4.976-.48,4.723,4.723,0,0,1-1.083,4.069,3.694,3.694,0,0,1-1.366.825c.46.337,5.528,4.178,5.14,10.072a10.612,10.612,0,0,1-1.9,5.306,5.466,5.466,0,0,1-1.038,6.233,5.444,5.444,0,0,1-5.6,1.213A7.4,7.4,0,0,1-190.158,342a8.929,8.929,0,0,1-5.471-1.345c-4.227-2.48-7.428-12.531-8.113-25.919a6.429,6.429,0,0,1-3.3-3.863A6.511,6.511,0,0,1-206.071,305.422Z" transform="translate(-11108.109 -8681.283)" fill="url(#linear-gradient)"/>
        <g id="Group_3798" data-name="Group 3798" transform="translate(-11394.25 -8392.321)">
          <g id="Group_3793" data-name="Group 3793" transform="translate(11.981 30.25)">
            <g id="Group_3792" data-name="Group 3792" transform="translate(3.909 3.166)">
              <path id="Path_2921" data-name="Path 2921" d="M730.163,781.593c1.422,1.321,2.707,2.367,2.707,2.367L744.2,794.443c.017.017.033.036.051.053a2.669,2.669,0,0,0,3.781-3.768h0l-10.539-11.156-2.214-2.445s-.111-.122-.314-.328Z" transform="translate(-730.163 -776.799)" fill="#e6a792"/>
              <g id="Group_3791" data-name="Group 3791" transform="translate(14.354 13.761)">
                <path id="Path_2922" data-name="Path 2922" d="M797.9,813.968a8.759,8.759,0,0,1,4.055.078,4.939,4.939,0,0,0,1.474-.14s-.163,1.186-1.252,1.109a1.7,1.7,0,0,0-1.932.51,3.436,3.436,0,0,1-2.1.475c-.977-.2-1.307-.731-1.385-1.129A1.987,1.987,0,0,1,797.9,813.968Z" transform="translate(-780.79 -810.689)" fill="#f4c5ae"/>
                <g id="Group_3790" data-name="Group 3790" transform="translate(17.504 5.483)">
                  <path id="Path_2923" data-name="Path 2923" d="M807.82,819.173a.61.61,0,0,0-.842.113h0a.614.614,0,0,0,.319.788l2.518,1.454a.609.609,0,0,0,.841-.115h0a.61.61,0,0,0-.319-.786Z" transform="translate(-803.828 -819.061)" fill="#e6a792"/>
                  <path id="Path_2924" data-name="Path 2924" d="M805.429,821.047c-.356-.207-.762-.173-.906.077h0c-.144.248.03.617.385.823l2.8,1.621a.668.668,0,0,0,.908-.076h0c.142-.25-.03-.618-.387-.825Z" transform="translate(-802.494 -820.069)" fill="#e6a792"/>
                  <path id="Path_2925" data-name="Path 2925" d="M803.733,822.922a.554.554,0,0,0-.762.161h0a.555.555,0,0,0,.241.742l2.174,1.257a.552.552,0,0,0,.762-.161h0a.552.552,0,0,0-.24-.741Z" transform="translate(-801.641 -821.118)" fill="#e6a792"/>
                  <path id="Path_2926" data-name="Path 2926" d="M800.875,823.988a.5.5,0,0,0-.672.212h0a.5.5,0,0,0,.152.69l1.79,1.036a.5.5,0,0,0,.674-.212h0a.5.5,0,0,0-.154-.69Z" transform="translate(-800.128 -821.712)" fill="#e6a792"/>
                </g>
                <path id="Path_2927" data-name="Path 2927" d="M778.795,810.3s-1.287.248-2.158.372c-.341.048-2.123.069-2.793.063v.006c-1.179-.536-5.392-2.254-8.138-3.261a2.46,2.46,0,0,0-.551-.291,2.556,2.556,0,1,0-.889,4.943c2.581.576,7.44,1.109,9.243,1.3v.005c.086.007,2.658.631,2.658.631l.739.343a12.674,12.674,0,0,0,2.813,1.325c.69.039,4.064-2.654,4.064-2.654C782.568,811.788,778.795,810.3,778.795,810.3Z" transform="translate(-761.687 -807.02)" fill="#e6a792"/>
              </g>
            </g>
            <path id="Path_2928" data-name="Path 2928" d="M735.357,777.6c-.071-.078-.139-.158-.215-.234l-5.845-5.851c-1.978-1.979-4.938-2.23-6.61-.559s-1.423,4.63.554,6.609l5.845,5.85c.077.077.157.144.235.216Z" transform="translate(-721.579 -769.846)" fill="#ff9355"/>
          </g>
          <g id="Group_3797" data-name="Group 3797" transform="translate(0)">
            <g id="Group_3794" data-name="Group 3794" transform="translate(26.165 66.817)">
              <path id="Path_2929" data-name="Path 2929" d="M772.607,885.309c.057-.227.087.088,0,0-.183-.186-.434-.618-.659-.477a20.847,20.847,0,0,1-3.872-3.57c-2.055-2.65-4.683-14.3-5.2-16.353-.26-1.043-2.364-7.37-3.852-12.155a3.244,3.244,0,0,0-.2-.663,3.175,3.175,0,1,0-5.563,3l-.1.046a7.589,7.589,0,0,1,1,3.024,21.608,21.608,0,0,0,2.41,10.121l6.556,10.485-.033,1.357a.143.143,0,0,0-.02.035c-.1.266-.3.359,0,.874l-.035,1.387,1.923.98c1.555,2.151,3,5.445,6.135,3.758l.06.041,1.767-.222.717-.428.538-.176S773.526,885.963,772.607,885.309Z" transform="translate(-752.729 -850.151)" fill="#e6a792"/>
              <path id="Path_2930" data-name="Path 2930" d="M786.56,921.04a18.2,18.2,0,0,0-3.133-.388s-.9,2.812-3.289,1.614c-2.33-1.165-2.432-3.42-4.665-4.894-1.216-.805-1-1.433-1.053-1.591-.579.523-1.537,1.806-.033,3.755l.117.082,2.891,5.836.493-.207-1.756-4.625c.338.061,1.155.453,2.486,2.527a2.543,2.543,0,0,0,2.923,1.256s4.1-1.522,5.268-2.535C786.809,921.87,787.67,921.35,786.56,921.04Z" transform="translate(-764.087 -885.896)" fill="#2a2e43"/>
            </g>
            <g id="Group_3795" data-name="Group 3795" transform="translate(29.474 65.208)">
              <path id="Path_2931" data-name="Path 2931" d="M778.362,882.522c.067-.224.1-.43.014-.522-.173-.194-.42-.116-.65.012a20.746,20.746,0,0,1-3.7-3.745c-1.93-2.742-4.01-14.5-4.427-16.578-.213-1.054-2.019-7.472-3.283-12.321a3.174,3.174,0,1,0-6.123,1.523,3.235,3.235,0,0,0,.261.542l-.1.042a7.562,7.562,0,0,1,.861,3.069,21.6,21.6,0,0,0,1.936,10.22l6.057,10.781-.1,1.353a.134.134,0,0,0-.021.034c-.11.263-.315.345-.044.873l-.1,1.384,1.876,1.07c1.452,2.221,2.738,5.578,5.952,4.041l.06.042,1.774-.14.734-.392.547-.152S779.249,883.216,778.362,882.522Z" transform="translate(-759.995 -846.618)" fill="#f4bba8"/>
              <path id="Path_2932" data-name="Path 2932" d="M790.712,917.922a18.125,18.125,0,0,0-3.1-.624s-1.108,2.736-3.4,1.362c-2.236-1.339-2.167-3.6-4.28-5.235-1.153-.894-.894-1.5-.93-1.664-.617.478-1.669,1.684-.319,3.742l.112.091,2.441,6.04.506-.17-1.4-4.746c.333.088,1.115.541,2.287,2.708a2.543,2.543,0,0,0,2.82,1.473s4.207-1.208,5.443-2.13C790.9,918.768,791.8,918.314,790.712,917.922Z" transform="translate(-769.817 -882.098)" fill="#2a2e43"/>
            </g>
            <path id="Path_2933" data-name="Path 2933" d="M731.287,835.577c-.053,0-.1-.009-.155-.015l.052-.095L715.6,830.41a9.308,9.308,0,0,0-1.269-1.431l-1.588-3.092-11.572,1.949-1.949,7.087a9.455,9.455,0,0,0,0,2.062v.007h0a9.2,9.2,0,0,0,9.048,8.312,9.1,9.1,0,0,0,1.044-.063h16.412l.02-.035a.423.423,0,0,0,.052.05c.532.384,2.156-1.549,3.627-4.319C730.66,838.619,731.394,836.448,731.287,835.577Z" transform="translate(-697.391 -770.12)" fill="#23a994"/>
            <g id="Group_3796" data-name="Group 3796" transform="translate(12.826)">
              <path id="Path_2934" data-name="Path 2934" d="M741.506,728.988a6.854,6.854,0,0,1-.256-4.365c1.637-.709,2.473-2.584,2.844-4.206.4-1.762-.7-3.433-2.071-4.6-.539-.456-1.032-.868-1.821-1.541a4.973,4.973,0,0,0-.685-.59c-3.035-2.12-7.824-.5-10.7,3.614-2.73,3.911-2.74,8.665-.13,10.946-.772,2.759-1.314,5.069-3.3,6.852l-.1-.03-.052.16,9.138,6.142c-.155-.632-1.738-4.96-1.806-5.6a7.314,7.314,0,0,1,.056-1.949,7.031,7.031,0,0,1,.752-2.122,6.563,6.563,0,0,0,3.571,1.067c1.193-.168,2.374-3.4,2.83-3.268C741.36,729.945,741.506,728.988,741.506,728.988Z" transform="translate(-724.416 -708.502)" fill="#f4bba8"/>
              <path id="Path_2935" data-name="Path 2935" d="M741.778,711.437s-1.648-5.259-7.033-5.69a2.049,2.049,0,0,0-.055-.381c-.4-1.576-2.678-2.356-5.083-1.741s-4.024,2.392-3.62,3.968a2.027,2.027,0,0,0,.344.706c-4.465,3.732-2.439,10-2.439,10,1.3,3.637,3.4,4.723,4.768,5.031.914.207,1.9-2.865,2.123-3.439.192-.481.391-1.641.846-1.934.711-.458,1.453.945,1.358,1.011A11.343,11.343,0,0,1,737.8,716.7a10.668,10.668,0,0,1,4.935-.11,2.962,2.962,0,0,0,.125-.42A3.336,3.336,0,0,0,741.778,711.437Z" transform="translate(-723.435 -703.414)" fill="#2a2e43"/>
            </g>
            <path id="Path_2936" data-name="Path 2936" d="M717.895,763.9a17.578,17.578,0,0,1-7.2-7l-.166-.045c-1.551,1.827-2.681,2.72-3.551,4.024-1.809,2.71-2.208,5.216-2.841,8.12-.877,4.008-.119,8.246-1.408,12.177-1.176,3.586-3.726,6.463-5.808,9.592a.983.983,0,0,0-.344.368,3.632,3.632,0,0,0-1.308,2.849c.164,2.819,4.24,5.028,9.106,4.937,9.747-.183,9.765-10.1,12.171-16.725a7.483,7.483,0,0,1,1.141-2.057c.818-1.065,1.814-1.89,2.726-3.1a5.769,5.769,0,0,0,1-5.661C720.615,768.907,718.646,766.556,717.895,763.9Z" transform="translate(-695.267 -732.518)" fill="#23a994"/>
          </g>
        </g>
        <g id="Group_3803" data-name="Group 3803" transform="translate(-11394.571 -8321.633)">
          <g id="Group_3801" data-name="Group 3801" transform="translate(3.07 4.739)">
            <path id="Path_2937" data-name="Path 2937" d="M726.161,904.668h2.287s1.144,6.625,1.144,7.57-2.288,1.1-2.288,1.1-2.288-.158-2.288-1.1S726.161,904.668,726.161,904.668Z" transform="translate(-714.22 -888.455)" fill="#2a2e43"/>
            <path id="Path_2938" data-name="Path 2938" d="M743.57,922.915a1.951,1.951,0,0,1,.185,1.364H742.8l-.026-.017a.962.962,0,0,0-.026-.9c-.388-.73-1.992-1.979-8.38-2.164l.026-.947C739.622,920.4,742.711,921.3,743.57,922.915Z" transform="translate(-719.312 -896.942)" fill="#2a2e43"/>
            <path id="Path_2939" data-name="Path 2939" d="M705.224,922.915c.858-1.616,3.947-2.512,9.177-2.663l.026.947c-6.389.185-7.992,1.434-8.379,2.164a.95.95,0,0,0-.025.9l-.086.053h-.89A1.944,1.944,0,0,1,705.224,922.915Z" transform="translate(-703.312 -896.942)" fill="#2a2e43"/>
            <g id="Group_3799" data-name="Group 3799" transform="translate(21.966 27.049)">
              <path id="Path_2940" data-name="Path 2940" d="M753.612,930.626a1.882,1.882,0,0,0-3.763,0h-.3a2.186,2.186,0,0,1,4.372,0Z" transform="translate(-749.544 -928.465)" fill="#2a2e43"/>
              <path id="Path_2941" data-name="Path 2941" d="M750.573,931.134a1.718,1.718,0,1,0,1.717-1.735A1.728,1.728,0,0,0,750.573,931.134Z" transform="translate(-750.104 -928.974)" fill="#2a2e43"/>
            </g>
            <g id="Group_3800" data-name="Group 3800" transform="translate(0 27.049)">
              <path id="Path_2942" data-name="Path 2942" d="M705.371,930.626a1.881,1.881,0,0,0-3.761,0H701.3a2.187,2.187,0,0,1,4.373,0Z" transform="translate(-701.305 -928.465)" fill="#2a2e43"/>
              <path id="Path_2943" data-name="Path 2943" d="M702.334,931.134a1.717,1.717,0,1,0,1.717-1.735A1.727,1.727,0,0,0,702.334,931.134Z" transform="translate(-701.865 -928.974)" fill="#2a2e43"/>
            </g>
            <rect id="Rectangle_1836" data-name="Rectangle 1836" width="1.602" height="19.116" transform="translate(12.285)" fill="#2a2e43"/>
          </g>
          <g id="Group_3802" data-name="Group 3802">
            <path id="Path_2944" data-name="Path 2944" d="M694.576,866.271a2.451,2.451,0,0,0-.014.248v.867c0,1.094,4.486,2.849,5.358,2.849H721.44c.872,0,5.357-1.754,5.357-2.849v-.867a2.333,2.333,0,0,0-.013-.248Z" transform="translate(-694.562 -862.803)" fill="#78849e"/>
            <path id="Path_2945" data-name="Path 2945" d="M727.259,862.223v-1.586c0-1.1-1.551-1.982-3.464-1.982h-25.06c-1.913,0-3.464.887-3.464,1.982v1.586Z" transform="translate(-694.948 -858.655)" fill="#454f63"/>
          </g>
        </g>
        <g id="Group_3815" data-name="Group 3815" transform="translate(-11349.641 -8392.588)">
          <path id="Path_2947" data-name="Path 2947" d="M862.582,788.843l0,0C862.471,788.513,862.582,788.843,862.582,788.843Z" transform="translate(-830.978 -749.597)" fill="#9b1900"/>
          <path id="Path_2948" data-name="Path 2948" d="M902.48,788.841v0S902.591,788.513,902.48,788.841Z" transform="translate(-852.735 -749.597)" fill="#9b1900"/>
          <path id="Path_2949" data-name="Path 2949" d="M881.367,842.352c0,3.5-1.858,6.336-4.15,6.336H859.473c-2.292,0-4.15-2.837-4.15-6.336h0c0-3.5,1.859-6.336,4.15-6.336h17.744c2.291,0,4.15,2.837,4.15,6.336Z" transform="translate(-827.051 -775.37)" fill="#f7e9e3"/>
          <path id="Path_2954" data-name="Path 2954" d="M881.292,837.485a31.8,31.8,0,0,0-2.616-7.72H857.939a31.761,31.761,0,0,0-2.616,7.72Z" transform="translate(-827.051 -771.965)" fill="#f7e9e3"/>
          <path id="Path_2955" data-name="Path 2955" d="M864.427,788.537h0C864.308,788.188,864.427,788.537,864.427,788.537Z" transform="translate(-831.981 -749.426)" fill="#9b1900"/>
          <path id="Path_2956" data-name="Path 2956" d="M906.647,788.536h0S906.767,788.188,906.647,788.536Z" transform="translate(-855.005 -749.426)" fill="#9b1900"/>
          <g id="Group_3804" data-name="Group 3804" transform="translate(29.918 24.486)">
            <path id="Path_2957" data-name="Path 2957" d="M864.85,756.939l-1.749.331c-1.3,9.481-3.647,9.787-3.655,9.821.1.3,1.687,6.119,2.392,8.149,2.09,6.041.378,9.132.378,9.132a30.227,30.227,0,0,0-3.252,7.88.177.177,0,0,0-.027.09.036.036,0,0,0,0,.017.059.059,0,0,0,0,.016h.005c.151.73,7.869,1.134,14,1.149l-.854-25.126C865.374,768.279,864.85,756.939,864.85,756.939Z" transform="translate(-858.939 -756.786)" fill="#f7e9e3"/>
            <path id="Path_2958" data-name="Path 2958" d="M894.842,792.16a.174.174,0,0,0-.028-.09,30.177,30.177,0,0,0-3.253-7.88s-1.711-3.09.379-9.132c.7-2.03,2.289-7.847,2.393-8.149-.007-.034.657-.846-2.236-10.156l-3.226-.114s1.448,11.618-5.264,11.738v25.149c6.128-.015,11.075-.6,11.227-1.332h.008a.086.086,0,0,0-.005-.016A.055.055,0,0,0,894.842,792.16Z" transform="translate(-872.374 -756.603)" fill="#f7e9e3"/>
          </g>
          <path id="Path_2959" data-name="Path 2959" d="M898.146,756.6s.484.008,1.514.128c1.459.163,4.647.806,5.632,2.862,1.137,2.379,2.624,6.34,2.624,6.34l5.388,13.7.529,1.351s-2.638,2.065-4.777,1.28l-6.828-14.045-1.357-2.685S896.588,759.234,898.146,756.6Z" transform="translate(-850.189 -732.117)" fill="#f7e9e3"/>
          <g id="Group_3806" data-name="Group 3806" transform="translate(24.523 57.872)">
            <g id="Group_3805" data-name="Group 3805" transform="translate(10.598 1.882)">
              <path id="Path_2960" data-name="Path 2960" d="M877.751,835.768c-.431-1.44-2.411-2.1-4.432-1.476s-3.3,2.3-2.872,3.733a1.887,1.887,0,0,0,.334.644c.24,1.035.464,2.081.623,3.081.235,1.065.5,1.974.758,3.132s.724,3.671,1.09,5.325,1.193,3.736,1.909,7.69c.777,4.27,1.42,7.309,1.42,7.309a64.142,64.142,0,0,1,.672,8.722c.21,3,2.35,5.483,3.047,6.264l1.2-4.014s.714-4.594.133-6.258a9.708,9.708,0,0,1-.48-3.107,11.123,11.123,0,0,1-.184-2.621c.02-.257,0-1.691.142-4.322s.146-7.333.146-7.333a45.631,45.631,0,0,0-2.136-11.388c-.549-2.145-.406-1.227-1.064-4.058-.095-.416-.174-.774-.238-1.093l-.015,0A2.119,2.119,0,0,0,877.751,835.768Z" transform="translate(-870.364 -834.056)" fill="#e6a792"/>
              <path id="Path_2961" data-name="Path 2961" d="M884.466,912.951s.1-4.507.149-5.226-.3-3.607-.3-3.607l.434,1.915s.207,3.151.205,4.93c0,2.056,2.444,3.021,2.444,3.021a3.829,3.829,0,0,0,1.8-3.044,55.8,55.8,0,0,0-.66-5.635l.045-2.007a24.054,24.054,0,0,0,.521,3.4c.259.659.9,4.484.9,4.484.95,4.01-2.231,7.47-2.231,7.47A7.06,7.06,0,0,1,884.466,912.951Z" transform="translate(-877.965 -871.768)" fill="#2a2e43"/>
            </g>
            <path id="Path_2962" data-name="Path 2962" d="M871.7,841.366c.477-.239-4.23-9.265-4.854-9.877-5.527-5.412-8.435,4.615-9.167,8.628-.216,1.185-.741,3.7-1.041,5.389s-.338,3.929-1.2,7.9c-.924,4.286-1.5,7.368-1.5,7.368a21.133,21.133,0,0,1-3.12,7.016,14.13,14.13,0,0,0-.338,7.236l3.773-2.219a44.831,44.831,0,0,1,2.043-6.46,13.1,13.1,0,0,0,1.23-2.469,12.094,12.094,0,0,1,.842-2.53c.115-.232.647-1.591,1.79-4.016s2.948-6.848,2.948-6.848a41.8,41.8,0,0,0,2.164-9.41C867.406,841.718,870.028,842.191,871.7,841.366Z" transform="translate(-848.763 -829.922)" fill="#f4bba8"/>
            <path id="Path_2963" data-name="Path 2963" d="M854.868,906.074a45.785,45.785,0,0,1-2.206,4.159c-1.51,2.91-3.6,2.079-3.6,2.079a3.573,3.573,0,0,1,.141-3.331c.855-1.594,1.255-2.517,1.255-2.517l1-2.221c-.052-.045-.1-.088-.154-.135a18.816,18.816,0,0,1-.845,1.825c-.389.62-2.643,4.609-2.643,4.609a6.949,6.949,0,0,0,.167,6.572s4.457-1.687,5.551-5.7c0,0,1.279-3.706,1.366-4.411a5.243,5.243,0,0,1,.239-.867C855.393,905.365,854.956,906.1,854.868,906.074Z" transform="translate(-847.09 -870.327)" fill="#2a2e43"/>
          </g>
          <g id="Group_3810" data-name="Group 3810" transform="translate(0 40.357)">
            <g id="Group_3808" data-name="Group 3808" transform="translate(0.483 6.634)">
              <path id="Path_2964" data-name="Path 2964" d="M809.566,816.916a6.961,6.961,0,0,1-3.148,2.327,3.768,3.768,0,0,0-1.011.992s-.808-1.138.078-1.712a1.388,1.388,0,0,0,1.074-1.59,2.705,2.705,0,0,1,1.222-1.656,1.8,1.8,0,0,1,1.943.173A1.879,1.879,0,0,1,809.566,816.916Z" transform="translate(-800.164 -810.956)" fill="#f4bba8"/>
              <path id="Path_2965" data-name="Path 2965" d="M809.351,806.108c-.02-.438-2.517,1.017-2.517,1.017l-.835.136c-.832.134-2.625.122-3.183.495s-1.006,4.732-1.006,4.732c1.938.418,5.981-.5,5.981-.5s.786-.978,1.35-1.6c.222-.245,1.565-1.318,2.08-1.709Z" transform="translate(-798.389 -806.026)" fill="#f4bba8"/>
              <g id="Group_3807" data-name="Group 3807" transform="translate(0 1.6)">
                <path id="Path_2966" data-name="Path 2966" d="M798.9,819.021c.389-.027.636-.292.549-.6h0a.834.834,0,0,0-.86-.5l-3.06.209c-.39.026-.637.293-.551.6h0a.84.84,0,0,0,.86.5Z" transform="translate(-794.658 -814.103)" fill="#f4bba8"/>
                <path id="Path_2967" data-name="Path 2967" d="M798.662,815.981c.433-.031.716-.3.631-.6h0a.907.907,0,0,0-.943-.5l-3.407.231c-.432.028-.715.3-.629.6h0a.908.908,0,0,0,.942.495Z" transform="translate(-794.297 -812.447)" fill="#f4bba8"/>
                <path id="Path_2968" data-name="Path 2968" d="M799.761,813.291a.46.46,0,0,0,.456-.59h0a.761.761,0,0,0-.769-.51l-2.639.178a.464.464,0,0,0-.457.593h0a.762.762,0,0,0,.768.506Z" transform="translate(-795.406 -810.983)" fill="#f4bba8"/>
                <path id="Path_2969" data-name="Path 2969" d="M801.877,810.64a.42.42,0,0,0,.347-.583h0a.694.694,0,0,0-.66-.516l-2.175.148a.42.42,0,0,0-.347.583h0a.691.691,0,0,0,.656.516Z" transform="translate(-796.868 -809.54)" fill="#f4bba8"/>
              </g>
            </g>
            <path id="Path_2970" data-name="Path 2970" d="M818.478,801.581a97.006,97.006,0,0,0,9.76-4.195,4.875,4.875,0,0,0,2.051-2.478c.135-.425-.64-1.638-.939-2.018a3.938,3.938,0,0,0-1.315-1.1c-1.438-.7-2.067-.19-3.128.4-3.074,1.7-5.547,4.044-8.173,6.3Z" transform="translate(-806.034 -791.458)" fill="#f4bba8"/>
            <g id="Group_3809" data-name="Group 3809" transform="translate(0 8.443)">
              <path id="Path_2971" data-name="Path 2971" d="M795.365,818.441l-.993.068c-.273.018-.445.2-.385.417a.587.587,0,0,0,.6.35l.974-.066A3.433,3.433,0,0,1,795.365,818.441Z" transform="translate(-793.638 -814.597)" fill="#ea5786" stroke="#f5f5f5" stroke-miterlimit="10" stroke-width="0.033"/>
              <path id="Path_2972" data-name="Path 2972" d="M794.786,815.674l-1.1.075c-.3.02-.5.209-.44.422a.634.634,0,0,0,.658.345l.9-.061A3.449,3.449,0,0,1,794.786,815.674Z" transform="translate(-793.235 -813.09)" fill="#ea5786" stroke="#f5f5f5" stroke-miterlimit="10" stroke-width="0.033"/>
              <path id="Path_2973" data-name="Path 2973" d="M796.551,812.772l-1.017.068a.323.323,0,0,0-.319.413.532.532,0,0,0,.536.353l.739-.049A3.5,3.5,0,0,1,796.551,812.772Z" transform="translate(-794.307 -811.51)" fill="#ea5786" stroke="#f5f5f5" stroke-miterlimit="10" stroke-width="0.033"/>
              <path id="Path_2974" data-name="Path 2974" d="M798.843,810l-.906.061a.293.293,0,0,0-.242.407.482.482,0,0,0,.458.36l.745-.051A3.533,3.533,0,0,1,798.843,810Z" transform="translate(-795.655 -810)" fill="#ea5786" stroke="#f5f5f5" stroke-miterlimit="10" stroke-width="0.033"/>
            </g>
          </g>
          <g id="Group_3814" data-name="Group 3814" transform="translate(41.574 47.47)">
            <g id="Group_3812" data-name="Group 3812" transform="translate(0.237 3.128)">
              <path id="Path_2975" data-name="Path 2975" d="M893.13,814.049a6.358,6.358,0,0,0-3.553.382,3.452,3.452,0,0,1-1.292-.042s.161,1.264,1.111,1.1a1.267,1.267,0,0,1,1.7.4,2.469,2.469,0,0,0,1.844.358,1.64,1.64,0,0,0,1.2-1.317S893.75,814.148,893.13,814.049Z" transform="translate(-886.814 -813.949)" fill="#f4bba8"/>
              <path id="Path_2976" data-name="Path 2976" d="M898.429,817.153c.257.306-2.32.872-2.32.872l-.645.424c-.642.424-1.839,1.541-2.444,1.635s-3.6-2.557-3.6-2.557c1.045-1.479,4.328-3.359,4.328-3.359s1.132.171,1.9.24c.3.027,1.865-.082,2.453-.137Z" transform="translate(-887.433 -814.068)" fill="#f4bba8"/>
              <g id="Group_3811" data-name="Group 3811" transform="translate(0 2.763)">
                <path id="Path_2977" data-name="Path 2977" d="M887.56,820.168c.278-.223.607-.2.739.062h0a.763.763,0,0,1-.268.869l-2.185,1.75c-.278.224-.609.2-.74-.061h0a.766.766,0,0,1,.268-.867Z" transform="translate(-885.055 -820.017)" fill="#f4bba8"/>
                <path id="Path_2978" data-name="Path 2978" d="M889.261,822.006c.309-.247.666-.242.8.015h0a.827.827,0,0,1-.326.918l-2.43,1.951c-.309.248-.667.24-.8-.018h0a.829.829,0,0,1,.327-.914Z" transform="translate(-885.818 -821.001)" fill="#f4bba8"/>
                <path id="Path_2979" data-name="Path 2979" d="M891.7,823.9a.421.421,0,0,1,.671.114h0a.7.7,0,0,1-.2.818l-1.883,1.512a.422.422,0,0,1-.672-.115h0a.7.7,0,0,1,.2-.816Z" transform="translate(-887.505 -822.069)" fill="#f4bba8"/>
                <path id="Path_2980" data-name="Path 2980" d="M894.777,824.841a.382.382,0,0,1,.593.177h0a.632.632,0,0,1-.125.755l-1.552,1.245a.383.383,0,0,1-.593-.177h0a.63.63,0,0,1,.122-.752Z" transform="translate(-889.398 -822.599)" fill="#f4bba8"/>
              </g>
            </g>
            <path id="Path_2981" data-name="Path 2981" d="M906.052,810.386a88.3,88.3,0,0,1,9.149-3.213,4.448,4.448,0,0,1,2.908.4c.353.2.582,1.5.616,1.936a3.586,3.586,0,0,1-.207,1.549c-.534,1.356-1.27,1.4-2.347,1.665a45.445,45.445,0,0,1-9.383.818Z" transform="translate(-896.255 -807.08)" fill="#f4bba8"/>
            <g id="Group_3813" data-name="Group 3813" transform="translate(0 7.838)">
              <path id="Path_2982" data-name="Path 2982" d="M885.8,824.93l-.709.568c-.195.156-.425.137-.517-.042a.537.537,0,0,1,.188-.607l.695-.557A3.15,3.15,0,0,0,885.8,824.93Z" transform="translate(-884.536 -824.292)" fill="#ea5786" stroke="#f5f5f5" stroke-miterlimit="10" stroke-width="0.03"/>
              <path id="Path_2983" data-name="Path 2983" d="M887.112,827.146l-.785.63c-.214.173-.465.169-.556-.012a.58.58,0,0,1,.229-.639l.643-.516A3.158,3.158,0,0,0,887.112,827.146Z" transform="translate(-885.191 -825.554)" fill="#ea5786" stroke="#f5f5f5" stroke-miterlimit="10" stroke-width="0.03"/>
              <path id="Path_2984" data-name="Path 2984" d="M890.094,828.21l-.726.583a.3.3,0,0,1-.469-.082.486.486,0,0,1,.142-.568l.527-.423A3.2,3.2,0,0,0,890.094,828.21Z" transform="translate(-886.89 -826.159)" fill="#ea5786" stroke="#f5f5f5" stroke-miterlimit="10" stroke-width="0.03"/>
              <path id="Path_2985" data-name="Path 2985" d="M893.349,828.714l-.648.519a.268.268,0,0,1-.413-.124.44.44,0,0,1,.085-.525l.532-.426A3.154,3.154,0,0,0,893.349,828.714Z" transform="translate(-888.731 -826.397)" fill="#ea5786" stroke="#f5f5f5" stroke-miterlimit="10" stroke-width="0.03"/>
            </g>
          </g>
          <path id="Path_2986" data-name="Path 2986" d="M877.385,755.031l-.033,0-3.314,1.84-3.316-1.84-.388-.047-5.827,1.3,5.087,12.057h8.885l3.933-12.084Z" transform="translate(-832.044 -731.238)" fill="#f7e9e3"/>
          <path id="Path_2987" data-name="Path 2987" d="M850.424,757.573c-1.705.067-3.722.46-4.7,1.819-1.542,2.137-3.713,5.771-3.713,5.771l-4.867,8.221a38.967,38.967,0,0,1,3.775,2.994l.43.051,5.851-8,1.815-2.4a26.828,26.828,0,0,0,2.762-3.412A11.786,11.786,0,0,1,850.424,757.573Z" transform="translate(-817.148 -732.646)" fill="#f7e9e3"/>
        </g>
        <g id="Group_3822" data-name="Group 3822" transform="translate(-11383.514 -8362.608)">
          <g id="Group_3817" data-name="Group 3817" transform="translate(33.704 20.671)">
            <g id="Group_3816" data-name="Group 3816" transform="translate(1.064)">
              <path id="Path_2988" data-name="Path 2988" d="M797.586,823.136a.769.769,0,0,1-.769.77h-.846a.77.77,0,0,1-.77-.77h0a.771.771,0,0,1,.77-.77h.846a.77.77,0,0,1,.769.77Z" transform="translate(-795.2 -818.587)" fill="#271c17"/>
              <path id="Path_2989" data-name="Path 2989" d="M797.425,814.476h-.02a.564.564,0,0,0-1.086,0h-.02l-.239,3.722h1.6Z" transform="translate(-795.668 -814.066)" fill="#271c17"/>
            </g>
            <path id="Rectangle_1838" data-name="Rectangle 1838" d="M1.542,0h1.43A1.543,1.543,0,0,1,4.515,1.543V3.987A1.541,1.541,0,0,1,2.974,5.528H1.543A1.543,1.543,0,0,1,0,3.985V1.542A1.542,1.542,0,0,1,1.542,0Z" transform="translate(0 4.499)" fill="#ea5786" stroke="#f5f5f5" stroke-miterlimit="10" stroke-width="0.03"/>
          </g>
          <g id="Group_3821" data-name="Group 3821" transform="translate(0)">
            <g id="Group_3820" data-name="Group 3820" transform="translate(3.378 3.815)">
              <path id="Path_2990" data-name="Path 2990" d="M726.264,781.162c1.234,1.5,2.368,2.706,2.368,2.706l9.835,11.893c.014.019.027.04.043.059a2.669,2.669,0,0,0,4.247-3.232h0l-8.965-12.456-1.871-2.718s-.093-.135-.266-.367Z" transform="translate(-726.264 -777.047)" fill="#f8c0a1"/>
              <g id="Group_3819" data-name="Group 3819" transform="translate(12.676 15.225)">
                <path id="Path_2991" data-name="Path 2991" d="M789.687,821.879a8.752,8.752,0,0,1,4.008.616,4.952,4.952,0,0,0,1.48.057s-.319,1.153-1.388.932a1.7,1.7,0,0,0-1.983.249,3.433,3.433,0,0,1-2.142.192c-.942-.333-1.2-.9-1.224-1.3A1.992,1.992,0,0,1,789.687,821.879Z" transform="translate(-772.804 -816.676)" fill="#f4c5ae"/>
                <g id="Group_3818" data-name="Group 3818" transform="translate(16.611 7.91)">
                  <path id="Path_2992" data-name="Path 2992" d="M798.933,828.024a.609.609,0,0,0-.849,0h0a.613.613,0,0,0,.211.823l2.3,1.777a.61.61,0,0,0,.848,0h0a.61.61,0,0,0-.212-.822Z" transform="translate(-794.62 -827.854)" fill="#f8c0a1"/>
                  <path id="Path_2993" data-name="Path 2993" d="M796.32,829.562c-.326-.253-.732-.273-.908-.045h0c-.176.227-.052.616.272.867l2.562,1.979a.668.668,0,0,0,.91.045h0c.174-.228.053-.617-.273-.869Z" transform="translate(-793.168 -828.674)" fill="#f8c0a1"/>
                  <path id="Path_2994" data-name="Path 2994" d="M794.378,831.2a.555.555,0,0,0-.777.058h0a.555.555,0,0,0,.14.768l1.988,1.534a.551.551,0,0,0,.777-.057h0a.553.553,0,0,0-.14-.766Z" transform="translate(-792.172 -829.606)" fill="#f8c0a1"/>
                  <path id="Path_2995" data-name="Path 2995" d="M791.393,831.882a.5.5,0,0,0-.694.122h0a.5.5,0,0,0,.06.7l1.636,1.264a.5.5,0,0,0,.7-.121h0a.5.5,0,0,0-.061-.7Z" transform="translate(-790.581 -829.997)" fill="#f8c0a1"/>
                </g>
                <path id="Path_2996" data-name="Path 2996" d="M770.985,815.685s-1.309.075-2.188.083c-.346,0-2.113-.213-2.778-.308v.006c-1.1-.687-5.045-2.95-7.633-4.311a2.443,2.443,0,0,0-.508-.362,2.556,2.556,0,1,0-1.537,4.782c2.482.913,7.228,2.086,8.99,2.512l0,.005c.084.018,2.551.977,2.551.977l.687.439a12.672,12.672,0,0,0,2.612,1.686c.679.13,4.38-2.092,4.38-2.092C774.527,817.662,770.985,815.685,770.985,815.685Z" transform="translate(-754.102 -810.482)" fill="#f8c0a1"/>
              </g>
            </g>
            <path id="Path_2997" data-name="Path 2997" d="M732.034,777.7c-.059-.088-.116-.176-.182-.26l-5.017-6.576c-1.7-2.223-4.6-2.865-6.478-1.43s-2.025,4.4-.327,6.624l5.017,6.574c.067.086.136.164.2.245Z" transform="translate(-718.846 -768.669)" fill="#239583"/>
          </g>
        </g>
        <g id="Group_3826-2" data-name="Group 3826">
          <path id="Path_2999" data-name="Path 2999" d="M-197.369,322.056c-.32,1.235-.858,2.67-.858,2.67a3.952,3.952,0,0,0,1,4.634c1.864,1.28,4.5-.664,4.847-.921a6.276,6.276,0,0,0,1.975-2.487,23.957,23.957,0,0,1-1.023-2.356,24.285,24.285,0,0,1-1.459-6.849Z" transform="translate(-11112.905 -8693.168)" fill="#f4bba8"/>
          <path id="Path_3000" data-name="Path 3000" d="M-197.081,324.645h0c.129-.4.262-.838.37-1.255l4.621-3.666c.06.624.152,2.441-.983,3.453a24.4,24.4,0,0,1-2.394,1.063C-196.07,324.495-196.937,324.855-197.081,324.645Z" transform="translate(-11113.562 -8694.503)" fill="#e6a792"/>
          <path id="Path_3001" data-name="Path 3001" d="M-202.455,302.819c-1.4,1.205-1.186,11.081-.628,12.354s3.018.85,4.568.674a6.725,6.725,0,0,0,3.723-2.111c.36-.55-.019-2.372-.019-2.372s1.374.628,1.454-.651-.848-3.186-1.3-2.453l-.45.733S-200.915,301.5-202.455,302.819Z" transform="translate(-11110.682 -8686.856)" fill="#f4bba8"/>
        </g>
      </g>
    </g>
  </g>
</svg>
